<svg height="24" viewBox="0 0 24 24" width="24" xmlns="http://www.w3.org/2000/svg">
    <path d="m0 0h24v24h-24z" fill="none" />
    <path
        d="m1597.54-4.4-5.879-5.88a.749.749 0 0 1 -.362-.642.748.748 0 0 1 .1-.378.748.748 0 0 1 .128-.171.736.736 0 0 1 .078-.068l5.932-5.932a.751.751 0 0 1 1.061 0 .751.751 0 0 1 0 1.061l-4.739 4.738h12.688a.75.75 0 0 1 .531.22.75.75 0 0 1 .219.531.75.75 0 0 1 -.75.75h-12.66l4.713 4.711a.751.751 0 0 1 0 1.061.749.749 0 0 1 -.531.219.749.749 0 0 1 -.527-.22z"
        fill="#fff" transform="translate(-1586.3 22.92)" />
</svg>