<svg xmlns="http://www.w3.org/2000/svg" width="105.12" height="70.784" viewBox="0 0 105.12 70.784">
  <g id="bike-motorcycle-icon" transform="translate(0 0.023)">
    <path id="Path_643" data-name="Path 643" d="M43.372,31.392l-.137-.582a20.689,20.689,0,0,1-6.168.667,37.415,37.415,0,0,1-7.083-1.018c-1.155-.265-2.164-.547-3.122-.821a23.526,23.526,0,0,0-6.673-1.163h-.068l-9.47-.8L8.786,30.357a71.186,71.186,0,0,0,18.7,4.149c6.134.539,12.011.291,16.3-.975l-.411-2.139Zm46.153,8.178a15.59,15.59,0,1,1-9.145,2.96l-4.525-8.9-8.307,24.98h-3.67a1.709,1.709,0,0,1-.017.3A10.072,10.072,0,0,1,62.3,63a5.4,5.4,0,0,1-3.217,2.2c-1.617.385-6.151-.342-9.111-.813-.787-.128-1.463-.231-1.9-.291l-9.761-1.309-.043.154a1.847,1.847,0,0,1-2.087,1.377l-6.057-.992a15.734,15.734,0,0,1-2.284,2.814,16.095,16.095,0,0,1-22.413,0,15.29,15.29,0,0,1,0-21.968,16.095,16.095,0,0,1,22.413,0,15.33,15.33,0,0,1,4.654,10.984c0,.479-.026.95-.068,1.412L37.7,58.032a1.851,1.851,0,0,1,1.335,2.053l9.384,1.258c.488.068,1.172.171,1.976.3,2.738.436,6.938,1.1,8.041.847a2.709,2.709,0,0,0,1.6-1.112A7.127,7.127,0,0,0,61.1,58.6H38.813C32.037,35.516,15.1,32.351,5.381,40.614L0,40.546c1.608-3.9,5.389-6.433,9.983-7.793C8.965,32.4,7.99,32.034,7.049,31.64a.73.73,0,0,1-.214-.111A.921.921,0,0,1,6.6,30.246l2.814-4.055a.943.943,0,0,1,.855-.419l10,.847h0a25.367,25.367,0,0,1,7.092,1.232c.941.265,1.933.539,3.037.8a34.847,34.847,0,0,0,6.724.975,18.529,18.529,0,0,0,6.348-.821c.684-.607,1.377-1.189,2.1-1.745.744-.582,1.531-1.146,2.37-1.7a29.389,29.389,0,0,1,6.946-3.49,22.9,22.9,0,0,1,7.759-1.189,16.034,16.034,0,0,1,4.919.83,14.214,14.214,0,0,1,3.114,1.531.88.88,0,0,1,.171-.479l-4.936-3.7H58.2a1.617,1.617,0,0,1,0-3.234h7.109V9.167h.009V9.133a3.131,3.131,0,0,0-.026-.582,2.29,2.29,0,0,0-.094-.419c-.137-.419-.428-.6-.821-.838-.026-.009-.043-.026-.068-.034l-.188-.111-.068,1.112a1.2,1.2,0,1,1-2.4-.154L62.1,1.1a1.2,1.2,0,1,1,2.4.154l-.205,3.191.9.548.334.2a.153.153,0,0,1,.06.043,3.425,3.425,0,0,1,1.9,2.164,4.683,4.683,0,0,1,.188.855,6.261,6.261,0,0,1,.043.915h0v7.006l3.131,2.344.282-.325-.736-.53a.928.928,0,0,1-.205-1.292.909.909,0,0,1,.077-.094l2.883-3.362a.922.922,0,0,1,1.3-.1l.017.017,2.695,2.216a.924.924,0,0,1,.128,1.3l-.017.026h0l-2.814,3.208a.92.92,0,0,1-.394.265h0l-1,.342.915.684L74,20.9l.274-.137a.937.937,0,0,1,1.24.419l.017.026,1.317,2.515a8.787,8.787,0,0,1,3.276-3.251c.257-.18.513-.359.736-.522a7.875,7.875,0,0,1,2.678-1.386,3.4,3.4,0,0,1,2.4.18,3.367,3.367,0,0,1,1.583,1.822,7.86,7.86,0,0,1,.488,2.943v3.4a.735.735,0,0,1-.009.137,6.245,6.245,0,0,1-.975,3.328,2.969,2.969,0,0,1-1.181.975,3.1,3.1,0,0,1-1.454.257,7.094,7.094,0,0,1-3.627-1.583l-.984-.727L85.59,40.058a16.047,16.047,0,0,1,3.935-.488Zm-7.562,1.95a14.04,14.04,0,0,1,1.848-.873l-9.427-17.64a1.115,1.115,0,0,1-.086.128,4.644,4.644,0,0,1-1.326.642l8.991,17.742ZM10.984,50.658l3.867,1.069a3.909,3.909,0,0,1,.89-.308l.24-6.159h-.043l-.077.009c-.068.009-.137.009-.205.017h-.034l-.222.026-.077.009a.953.953,0,0,1-.145.017l-.086.017c-.051.009-.1.017-.145.026l-.077.017c-.06.009-.12.026-.18.034l-.043.009-.222.051-.068.017c-.051.009-.1.026-.154.034l-.086.026-.145.043-.077.017c-.06.017-.12.034-.171.051l-.043.009c-.068.026-.137.043-.205.068l-.077.026c-.043.017-.094.034-.137.051l-.086.034-.128.051-.086.034L12.832,46l-.077.034a1.831,1.831,0,0,0-.188.086l-.077.034-.12.06-.094.043-.1.051-.094.051-.1.034-.086.043h-.009c-.06.034-.111.06-.171.094h0l-.1.06-.077.043a.714.714,0,0,0-.1.068l-.077.051-.1.068-.077.051-.111.068-.026.017-.257.18-.051.034-.111.086-.06.051a.906.906,0,0,0-.1.086l-.051.043c-.128.1-.257.214-.385.325l-.026.017c-.034.034-.077.068-.111.1l-.043.043a1.315,1.315,0,0,1-.111.1l-.043.043-.1.1-.017.017q-.192.192-.359.385l-.026.026a1.488,1.488,0,0,1-.111.128l-.009.026c-.128.145-.248.3-.368.462l2.293,1.437Zm10.454,2.891,5.133,1.42a9.9,9.9,0,0,0-.8-3.7l-4.337,2.284Zm2.147,8.717-6.211-1.018-.094,3.833.1-.009h.043c.077-.009.145-.009.222-.017l.051-.009.2-.026h.034L18.136,65l.068-.009c.068-.009.137-.026.214-.034h.009a1.751,1.751,0,0,0,.205-.043l.051-.009c.068-.017.137-.026.205-.043l.034-.009c.06-.017.12-.026.18-.043l.051-.017c.068-.017.137-.034.2-.051l.051-.017a1.6,1.6,0,0,0,.188-.06l.017-.009h.009c.06-.017.128-.043.188-.06l.068-.026a1.541,1.541,0,0,0,.18-.068l.051-.017a1.043,1.043,0,0,0,.145-.06l.068-.026c.06-.026.111-.043.171-.068l.077-.034.12-.051.068-.034.154-.077L21,64.088l.1-.051c.043-.026.086-.043.128-.068l.094-.051.094-.051c.043-.026.086-.043.128-.068s.068-.043.111-.06l.086-.051.094-.06.128-.077h0l.1-.068.06-.034c.06-.043.12-.077.171-.12l.034-.026.1-.077.043-.026.2-.145.026-.026a1.258,1.258,0,0,1,.111-.086l.017-.009c.068-.051.137-.111.205-.163l.043-.034c.111-.094.214-.188.317-.282h0l.188-.188Zm-8.05-1.317L9.65,59.982l-1.275.693.009.017a1.252,1.252,0,0,1,.077.111l.051.077.077.1.051.077.077.1.051.068.077.1.06.068a.906.906,0,0,0,.086.1.747.747,0,0,1,.068.086.748.748,0,0,1,.068.086h0c.043.051.094.1.137.154l.086.094.068.068a.771.771,0,0,1,.077.086l.077.086.077.068.086.086.077.077.077.077.086.077.077.068.086.068.094.077c.026.026.051.043.077.068.051.043.111.086.163.128h0l.068.051c.034.026.068.051.111.086l.086.068.086.068.094.068.094.068.094.068.094.06.094.06c.034.026.068.043.1.068l.086.051.128.077.068.043c.068.034.128.077.2.111l.068.034a.682.682,0,0,0,.137.068l.086.043.12.06.086.043.12.06.094.043c.043.017.077.034.12.051l.086.034a.95.95,0,0,1,.137.06l.077.034a1.664,1.664,0,0,0,.188.068l.026.009h.009c.068.026.137.051.214.077l.068.026c.051.017.094.034.145.051l.077.026c.051.017.1.026.145.043l.077.026.137.034.094.026c.051.009.1.026.145.034l.077.017c.051.009.1.026.163.034l.077.017a1.579,1.579,0,0,0,.2.034l.026.009h0c.077.017.154.026.222.034l.094.017a.748.748,0,0,0,.137.017l.094.009.12-4.1ZM9.4,52.137l-2.216-.043-1.968-.034-.881,3.285,3.43,2.464,8.349,1.369,1.309.214,5.963.975h0l1.557.257,6.125,1h0l5.261.864c.265-.445.693-2.216.89-2.626l.009-.034-6.7-1.848-4.1-1.129L13.191,53.2l-2.96-.821-.83-.24Zm71.928-29.9c-1.1.77-2.4,1.66-2.635,2.661-.111.462-.137.7-.068.821a3.01,3.01,0,0,0,.77.667l2.618,1.925a5.335,5.335,0,0,0,2.481,1.172.977.977,0,0,0,.462-.068.872.872,0,0,0,.334-.291,4.223,4.223,0,0,0,.565-2.19V23.522a5.819,5.819,0,0,0-.317-2.13,1.3,1.3,0,0,0-.565-.71,1.351,1.351,0,0,0-.915-.026,5.786,5.786,0,0,0-1.933,1.027c-.248.18-.513.359-.8.556Zm-10.7,5.133-.094-2.147a11.653,11.653,0,0,0-3.576-1.959A14.049,14.049,0,0,0,62.6,22.53a20.869,20.869,0,0,0-7.143,1.1,27.143,27.143,0,0,0-6.5,3.276c-.761.5-1.514,1.052-2.258,1.634-.6.462-1.172.932-1.719,1.42l.188.975.556,2.344,21.181.077h.086a4.238,4.238,0,0,0,1.471-.094,2.471,2.471,0,0,0,.967-.53c1.369-1.249,1.283-3.388,1.206-5.253l-.009-.1ZM39.146,39.511l8.136-.111a1.042,1.042,0,0,1,1.078,1.078l-.607,5.244A1.132,1.132,0,0,1,46.674,46.8H41.533c-.59,0-.83-.539-1.078-1.078l-2.4-5.133c-.248-.539.488-1.069,1.086-1.078Zm19.077-.65H65.58c.59,0,1.215.5,1.078,1.078L65.1,46.56c-.137.573-.488,1.078-1.078,1.078H58.882A1.126,1.126,0,0,1,57.8,46.56l-.667-6.621a1.06,1.06,0,0,1,1.086-1.078ZM12.293,58.545,9.65,59.982l2.643-1.437Zm3.157.522.667.111-.667-.111Zm9.444-9.427a9.931,9.931,0,0,0-7.066-4.329L17.6,51.462a3.934,3.934,0,0,1,1.8,1.027h0l.034.034,5.466-2.883ZM10.249,62.771c.026.026.051.043.077.068l-.077-.068ZM89.063,51.333l.24-6.245A10.059,10.059,0,0,0,81.637,48.9l5.518,3.473a3.867,3.867,0,0,1,1.908-1.035Zm2.079-6.125-.231,6.159a3.978,3.978,0,0,1,1.8,1.027h0l.034.034,5.235-2.763a10.079,10.079,0,0,0-6.835-4.457Zm7.7,6.1-5.15,2.72a4.033,4.033,0,0,1,.18,1.163,3.673,3.673,0,0,1-.137,1.027L98.7,59.341a10.107,10.107,0,0,0,.145-8.033Zm-1.069,9.641-4.927-3.105c-.043.051-.094.094-.137.145a3.921,3.921,0,0,1-1.95,1.069L90.6,65.175a10.031,10.031,0,0,0,7.169-4.226ZM88.755,65.2l.154-6.185a3.95,3.95,0,0,1-1.788-1.027c-.068-.077-.145-.145-.205-.222l-5.689,3.1A10.015,10.015,0,0,0,88.755,65.2ZM80.32,59.246l5.749-3.131a4.137,4.137,0,0,1-.111-.924,4.089,4.089,0,0,1,.205-1.266l-5.543-3.49a9.977,9.977,0,0,0-1.172,4.722,10.183,10.183,0,0,0,.873,4.089ZM91.5,53.6a2.262,2.262,0,0,0-3.182.009,2.028,2.028,0,0,0-.274.334.179.179,0,0,1-.034.051c-.009.017-.026.034-.034.051a2.251,2.251,0,0,0,3.533,2.729,2.173,2.173,0,0,0,.308-.385,1.364,1.364,0,0,1,.1-.231.741.741,0,0,1,.06-.086A2.251,2.251,0,0,0,91.5,53.6Z" transform="translate(0 0)" fill="#4849bf" fill-rule="evenodd"/>
  </g>
</svg>
