<svg id="car-icon" xmlns="http://www.w3.org/2000/svg" width="74.043" height="62.226" viewBox="0 0 74.043 62.226">
  <path id="Path_644" data-name="Path 644" d="M71.078,25.334V62.226H62.455v-5.7H11.594v5.7H2.971V25.334H0V19.663H7.255L11.3,7.081C12.492,3.369,14.481,0,18.374,0h38.8c3.893,0,6.135,3.3,7.075,7.075l3.128,12.583h6.665v5.671H71.078v.006ZM24.111,45.142H49.583V51.15H24.111V45.142ZM5.857,31.149c6.49.2,10.461,2.923,11.48,8.593H5.857V31.149Zm61.515,0c-6.49.2-10.461,2.923-11.48,8.593h11.48V31.149ZM10.353,19.657H63.7L61.412,9.105c-.627-2.893-2.429-5.393-5.393-5.393H19.127c-2.965,0-4.483,2.567-5.393,5.393L10.353,19.657Z" fill="#4849bf" fill-rule="evenodd"/>
</svg>
