<svg xmlns="http://www.w3.org/2000/svg" width="76.947" height="67.488" viewBox="0 0 76.947 67.488">
  <g id="gold-bars-icon" transform="translate(0.5 0.702)">
    <path id="Path_645" data-name="Path 645" d="M7.714,17.677l-.161.13a6.044,6.044,0,0,1,1.322,4.608,6.037,6.037,0,0,1-2.23,4.243l.13.161A6.016,6.016,0,0,1,11.383,25.5c7.955.828,2.267,5.435,3.082-2.514a6.037,6.037,0,0,1,2.23-4.243l-.13-.161a6.044,6.044,0,0,1-4.608,1.322,6.06,6.06,0,0,1-4.243-2.23ZM19.308,40.048,24.78,20.784a1.6,1.6,0,0,1,1.538-1.167H49.659A1.6,1.6,0,0,1,51.228,20.9l5.621,19.24a1.594,1.594,0,0,1-1.087,1.976,1.577,1.577,0,0,1-.445.062v.006h-34.5a1.6,1.6,0,0,1-1.6-1.6,1.535,1.535,0,0,1,.093-.537Zm18.986,24.1,5.472-19.264A1.6,1.6,0,0,1,45.3,43.717H68.645A1.6,1.6,0,0,1,70.214,45l5.621,19.24a1.594,1.594,0,0,1-1.087,1.976,1.577,1.577,0,0,1-.445.062v.006H39.8a1.6,1.6,0,0,1-1.507-2.137Zm8.215-17.232L41.92,63.086H72.178l-4.725-16.17ZM.093,64.149,5.565,44.884A1.6,1.6,0,0,1,7.1,43.717H30.444A1.6,1.6,0,0,1,32.013,45l5.621,19.24a1.594,1.594,0,0,1-1.087,1.976,1.577,1.577,0,0,1-.445.062v.006H1.6A1.6,1.6,0,0,1,.093,64.149ZM8.307,46.916,3.718,63.086H33.971l-4.725-16.17Zm19.215-24.1-4.589,16.17H53.192l-4.725-16.17ZM27.368,0l-.161.13a6.044,6.044,0,0,1,1.322,4.608A6.037,6.037,0,0,1,26.3,8.981l.13.161a6.023,6.023,0,0,1,4.614-1.316,6.052,6.052,0,0,1,4.243,2.224l.161-.13a6.044,6.044,0,0,1-1.322-4.608,6.037,6.037,0,0,1,2.23-4.243l-.13-.161A6.044,6.044,0,0,1,31.617,2.23,6.061,6.061,0,0,1,27.368,0ZM53.507,1.427l-.29.241A11.046,11.046,0,0,1,55.631,10.1a11.049,11.049,0,0,1-4.076,7.764l.241.29a11.025,11.025,0,0,1,8.437-2.409A11.072,11.072,0,0,1,68,19.82l.29-.241a11.046,11.046,0,0,1-2.415-8.431,11.049,11.049,0,0,1,4.076-7.764l-.247-.3A11.046,11.046,0,0,1,61.271,5.5a11.049,11.049,0,0,1-7.764-4.076Z" fill="#4849bf" stroke="#4849bf" stroke-width="1" fill-rule="evenodd"/>
  </g>
</svg>
