<svg height="7.937" viewBox="0 0 12.348 7.937" width="12.348" xmlns="http://www.w3.org/2000/svg">
    <g fill="#afafaf" transform="translate(-2.252 -7.875)">
        <path
            d="m8.419 7.875c-2.216 0-3.963 1.395-6.052 3.674a.436.436 0 0 0 0 .587c1.789 1.976 3.365 3.677 6.055 3.677 2.657 0 4.649-2.141 6.066-3.693a.432.432 0 0 0 .014-.57c-1.447-1.75-3.446-3.675-6.083-3.675zm.121 6.446a2.48 2.48 0 1 1 2.36-2.362 2.481 2.481 0 0 1 -2.36 2.362z" />
        <path
            d="m15.265 13.969a1.3 1.3 0 0 1 .085-.466h-.085a1.764 1.764 0 1 0 1.764 1.764c0-.036 0-.072 0-.107a1.222 1.222 0 0 1 -.5.107 1.279 1.279 0 0 1 -1.264-1.298z"
            transform="translate(-6.84 -3.42)" />
    </g>
</svg>