<svg xmlns="http://www.w3.org/2000/svg" width="58.875" height="58.875" viewBox="0 0 58.875 58.875">
  <g id="ticket-icon" transform="translate(0.002 0.002)">
    <path id="Path_646" data-name="Path 646" d="M.5,38.311,31,7.809a.889.889,0,0,0,.743-.249.874.874,0,0,0,.249-.743L38.311.5a1.715,1.715,0,0,1,2.42,0l5,5a5.563,5.563,0,0,0,7.647,7.647l5,5a1.715,1.715,0,0,1,0,2.42l-6.32,6.32a.894.894,0,0,0-.743.249.874.874,0,0,0-.249.743l-30.5,30.5a1.715,1.715,0,0,1-2.42,0l-4.969-4.964a5.561,5.561,0,0,0-7.7-7.7L.5,40.731a1.715,1.715,0,0,1,0-2.42ZM49,24.823a.884.884,0,1,1,0,1.251.885.885,0,0,1,0-1.251Zm-2.314-2.314a.884.884,0,1,1,0,1.251.885.885,0,0,1,0-1.251Zm-2.314-2.314a.884.884,0,1,1,0,1.251.885.885,0,0,1,0-1.251ZM42.058,17.88a.884.884,0,1,1,0,1.251.885.885,0,0,1,0-1.251Zm-2.314-2.314a.884.884,0,1,1,0,1.251.885.885,0,0,1,0-1.251Zm-2.314-2.314a.884.884,0,1,1,0,1.251.885.885,0,0,1,0-1.251Zm-2.314-2.314a.884.884,0,1,1,0,1.251.885.885,0,0,1,0-1.251ZM32.8,8.623a.884.884,0,1,1,0,1.251.885.885,0,0,1,0-1.251ZM12.193,35.891,31.062,17.023a2,2,0,0,1,2.822,0L42.556,25.7a2,2,0,0,1,0,2.822L23.688,47.386a2,2,0,0,1-2.822,0l-8.673-8.673a2,2,0,0,1,0-2.822Z" fill="#4849bf" fill-rule="evenodd"/>
  </g>
</svg>
